<svg width="1414" height="979" viewBox="0 0 1414 979" fill="none" xmlns="http://www.w3.org/2000/svg">
<g opacity="0.396112">
<path d="M794 28.251C794 28.251 808.066 54.001 854 54.001C888.719 54.001 928.778 2.16582 974 2.00102C1019.22 1.83622 1034 28.251 1034 28.251" stroke="#FFE44E" stroke-width="4" stroke-linecap="round"/>
<path d="M1034 28.251C1034 28.251 1048.07 54.001 1094 54.001C1128.72 54.001 1168.78 2.16582 1214 2.00102C1259.22 1.83622 1274 28.251 1274 28.251" stroke="#FFE44E" stroke-width="4" stroke-linecap="round"/>
<path d="M794 76.251C794 76.251 808.066 102.001 854 102.001C888.719 102.001 928.778 50.1658 974 50.001C1019.22 49.8362 1034 76.251 1034 76.251" stroke="#FFE44E" stroke-width="4" stroke-linecap="round"/>
<path d="M1034 76.251C1034 76.251 1048.07 102.001 1094 102.001C1128.72 102.001 1168.78 50.1658 1214 50.001C1259.22 49.8362 1274 76.251 1274 76.251" stroke="#FFE44E" stroke-width="4" stroke-linecap="round"/>
<path d="M794 52.251C794 52.251 808.066 78.001 854 78.001C888.719 78.001 928.778 26.1658 974 26.001C1019.22 25.8362 1034 52.251 1034 52.251" stroke="#FFE44E" stroke-width="4" stroke-linecap="round"/>
<path d="M1034 52.251C1034 52.251 1048.07 78.001 1094 78.001C1128.72 78.001 1168.78 26.1658 1214 26.001C1259.22 25.8362 1274 52.251 1274 52.251" stroke="#FFE44E" stroke-width="4" stroke-linecap="round"/>
<path d="M794 100.251C794 100.251 808.066 126.001 854 126.001C888.719 126.001 928.778 74.1658 974 74.001C1019.22 73.8362 1034 100.251 1034 100.251" stroke="#FFE44E" stroke-width="4" stroke-linecap="round"/>
<path d="M1034 100.251C1034 100.251 1048.07 126.001 1094 126.001C1128.72 126.001 1168.78 74.1658 1214 74.001C1259.22 73.8362 1274 100.251 1274 100.251" stroke="#FFE44E" stroke-width="4" stroke-linecap="round"/>
<path d="M794 124.251C794 124.251 808.066 150.001 854 150.001C888.719 150.001 928.778 98.1658 974 98.001C1019.22 97.8362 1034 124.251 1034 124.251" stroke="#FFE44E" stroke-width="4" stroke-linecap="round"/>
<path d="M1034 124.251C1034 124.251 1048.07 150.001 1094 150.001C1128.72 150.001 1168.78 98.1658 1214 98.001C1259.22 97.8362 1274 124.251 1274 124.251" stroke="#FFE44E" stroke-width="4" stroke-linecap="round"/>
<path d="M794 172.251C794 172.251 808.066 198.001 854 198.001C888.719 198.001 928.778 146.166 974 146.001C1019.22 145.836 1034 172.251 1034 172.251" stroke="#FFE44E" stroke-width="4" stroke-linecap="round"/>
<path d="M794 244.251C794 244.251 808.066 270.001 854 270.001C888.719 270.001 928.778 218.166 974 218.001C1019.22 217.836 1034 244.251 1034 244.251" stroke="#FFE44E" stroke-width="4" stroke-linecap="round"/>
<path d="M1034 172.251C1034 172.251 1048.07 198.001 1094 198.001C1128.72 198.001 1168.78 146.166 1214 146.001C1259.22 145.836 1274 172.251 1274 172.251" stroke="#FFE44E" stroke-width="4" stroke-linecap="round"/>
<path d="M1034 244.251C1034 244.251 1048.07 270.001 1094 270.001C1128.72 270.001 1168.78 218.166 1214 218.001C1259.22 217.836 1274 244.251 1274 244.251" stroke="#FFE44E" stroke-width="4" stroke-linecap="round"/>
<path d="M794 148.251C794 148.251 808.066 174.001 854 174.001C888.719 174.001 928.778 122.166 974 122.001C1019.22 121.836 1034 148.251 1034 148.251" stroke="#FFE44E" stroke-width="4" stroke-linecap="round"/>
<path d="M794 220.251C794 220.251 808.066 246.001 854 246.001C888.719 246.001 928.778 194.166 974 194.001C1019.22 193.836 1034 220.251 1034 220.251" stroke="#FFE44E" stroke-width="4" stroke-linecap="round"/>
<path d="M1034 148.251C1034 148.251 1048.07 174.001 1094 174.001C1128.72 174.001 1168.78 122.166 1214 122.001C1259.22 121.836 1274 148.251 1274 148.251" stroke="#FFE44E" stroke-width="4" stroke-linecap="round"/>
<path d="M1034 220.251C1034 220.251 1048.07 246.001 1094 246.001C1128.72 246.001 1168.78 194.166 1214 194.001C1259.22 193.836 1274 220.251 1274 220.251" stroke="#FFE44E" stroke-width="4" stroke-linecap="round"/>
<path d="M794 196.251C794 196.251 808.066 222.001 854 222.001C888.719 222.001 928.778 170.166 974 170.001C1019.22 169.836 1034 196.251 1034 196.251" stroke="#FFE44E" stroke-width="4" stroke-linecap="round"/>
<path d="M794 268.251C794 268.251 808.066 294.001 854 294.001C888.719 294.001 928.778 242.166 974 242.001C1019.22 241.836 1034 268.251 1034 268.251" stroke="#FFE44E" stroke-width="4" stroke-linecap="round"/>
<path d="M1034 196.251C1034 196.251 1048.07 222.001 1094 222.001C1128.72 222.001 1168.78 170.166 1214 170.001C1259.22 169.836 1274 196.251 1274 196.251" stroke="#FFE44E" stroke-width="4" stroke-linecap="round"/>
<path d="M1034 268.251C1034 268.251 1048.07 294.001 1094 294.001C1128.72 294.001 1168.78 242.166 1214 242.001C1259.22 241.836 1274 268.251 1274 268.251" stroke="#FFE44E" stroke-width="4" stroke-linecap="round"/>
</g>
<g opacity="0.396112">
<path d="M932 711.251C932 711.251 946.066 737.001 992 737.001C1026.72 737.001 1066.78 685.166 1112 685.001C1157.22 684.836 1172 711.251 1172 711.251" stroke="#FFE44E" stroke-width="4" stroke-linecap="round"/>
<path d="M1172 711.251C1172 711.251 1186.07 737.001 1232 737.001C1266.72 737.001 1306.78 685.166 1352 685.001C1397.22 684.836 1412 711.251 1412 711.251" stroke="#FFE44E" stroke-width="4" stroke-linecap="round"/>
<path d="M932 759.251C932 759.251 946.066 785.001 992 785.001C1026.72 785.001 1066.78 733.166 1112 733.001C1157.22 732.836 1172 759.251 1172 759.251" stroke="#FFE44E" stroke-width="4" stroke-linecap="round"/>
<path d="M1172 759.251C1172 759.251 1186.07 785.001 1232 785.001C1266.72 785.001 1306.78 733.166 1352 733.001C1397.22 732.836 1412 759.251 1412 759.251" stroke="#FFE44E" stroke-width="4" stroke-linecap="round"/>
<path d="M932 735.251C932 735.251 946.066 761.001 992 761.001C1026.72 761.001 1066.78 709.166 1112 709.001C1157.22 708.836 1172 735.251 1172 735.251" stroke="#FFE44E" stroke-width="4" stroke-linecap="round"/>
<path d="M1172 735.251C1172 735.251 1186.07 761.001 1232 761.001C1266.72 761.001 1306.78 709.166 1352 709.001C1397.22 708.836 1412 735.251 1412 735.251" stroke="#FFE44E" stroke-width="4" stroke-linecap="round"/>
<path d="M932 783.251C932 783.251 946.066 809.001 992 809.001C1026.72 809.001 1066.78 757.166 1112 757.001C1157.22 756.836 1172 783.251 1172 783.251" stroke="#FFE44E" stroke-width="4" stroke-linecap="round"/>
<path d="M1172 783.251C1172 783.251 1186.07 809.001 1232 809.001C1266.72 809.001 1306.78 757.166 1352 757.001C1397.22 756.836 1412 783.251 1412 783.251" stroke="#FFE44E" stroke-width="4" stroke-linecap="round"/>
<path d="M932 807.251C932 807.251 946.066 833.001 992 833.001C1026.72 833.001 1066.78 781.166 1112 781.001C1157.22 780.836 1172 807.251 1172 807.251" stroke="#FFE44E" stroke-width="4" stroke-linecap="round"/>
<path d="M1172 807.251C1172 807.251 1186.07 833.001 1232 833.001C1266.72 833.001 1306.78 781.166 1352 781.001C1397.22 780.836 1412 807.251 1412 807.251" stroke="#FFE44E" stroke-width="4" stroke-linecap="round"/>
<path d="M932 855.251C932 855.251 946.066 881.001 992 881.001C1026.72 881.001 1066.78 829.166 1112 829.001C1157.22 828.836 1172 855.251 1172 855.251" stroke="#FFE44E" stroke-width="4" stroke-linecap="round"/>
<path d="M932 927.251C932 927.251 946.066 953.001 992 953.001C1026.72 953.001 1066.78 901.166 1112 901.001C1157.22 900.836 1172 927.251 1172 927.251" stroke="#FFE44E" stroke-width="4" stroke-linecap="round"/>
<path d="M1172 855.251C1172 855.251 1186.07 881.001 1232 881.001C1266.72 881.001 1306.78 829.166 1352 829.001C1397.22 828.836 1412 855.251 1412 855.251" stroke="#FFE44E" stroke-width="4" stroke-linecap="round"/>
<path d="M1172 927.251C1172 927.251 1186.07 953.001 1232 953.001C1266.72 953.001 1306.78 901.166 1352 901.001C1397.22 900.836 1412 927.251 1412 927.251" stroke="#FFE44E" stroke-width="4" stroke-linecap="round"/>
<path d="M932 831.251C932 831.251 946.066 857.001 992 857.001C1026.72 857.001 1066.78 805.166 1112 805.001C1157.22 804.836 1172 831.251 1172 831.251" stroke="#FFE44E" stroke-width="4" stroke-linecap="round"/>
<path d="M932 903.251C932 903.251 946.066 929.001 992 929.001C1026.72 929.001 1066.78 877.166 1112 877.001C1157.22 876.836 1172 903.251 1172 903.251" stroke="#FFE44E" stroke-width="4" stroke-linecap="round"/>
<path d="M1172 831.251C1172 831.251 1186.07 857.001 1232 857.001C1266.72 857.001 1306.78 805.166 1352 805.001C1397.22 804.836 1412 831.251 1412 831.251" stroke="#FFE44E" stroke-width="4" stroke-linecap="round"/>
<path d="M1172 903.251C1172 903.251 1186.07 929.001 1232 929.001C1266.72 929.001 1306.78 877.166 1352 877.001C1397.22 876.836 1412 903.251 1412 903.251" stroke="#FFE44E" stroke-width="4" stroke-linecap="round"/>
<path d="M932 879.251C932 879.251 946.066 905.001 992 905.001C1026.72 905.001 1066.78 853.166 1112 853.001C1157.22 852.836 1172 879.251 1172 879.251" stroke="#FFE44E" stroke-width="4" stroke-linecap="round"/>
<path d="M932 951.251C932 951.251 946.066 977.001 992 977.001C1026.72 977.001 1066.78 925.166 1112 925.001C1157.22 924.836 1172 951.251 1172 951.251" stroke="#FFE44E" stroke-width="4" stroke-linecap="round"/>
<path d="M1172 879.251C1172 879.251 1186.07 905.001 1232 905.001C1266.72 905.001 1306.78 853.166 1352 853.001C1397.22 852.836 1412 879.251 1412 879.251" stroke="#FFE44E" stroke-width="4" stroke-linecap="round"/>
<path d="M1172 951.251C1172 951.251 1186.07 977.001 1232 977.001C1266.72 977.001 1306.78 925.166 1352 925.001C1397.22 924.836 1412 951.251 1412 951.251" stroke="#FFE44E" stroke-width="4" stroke-linecap="round"/>
</g>
<g opacity="0.396112">
<path d="M0 262.251C0 262.251 14.0661 288.001 60 288.001C94.7188 288.001 134.778 236.166 180 236.001C225.222 235.836 240 262.251 240 262.251" stroke="#FFE44E" stroke-width="4" stroke-linecap="round"/>
<path d="M240 262.251C240 262.251 254.066 288.001 300 288.001C334.719 288.001 374.778 236.166 420 236.001C465.222 235.836 480 262.251 480 262.251" stroke="#FFE44E" stroke-width="4" stroke-linecap="round"/>
<path d="M0 310.251C0 310.251 14.0661 336.001 60 336.001C94.7188 336.001 134.778 284.166 180 284.001C225.222 283.836 240 310.251 240 310.251" stroke="#FFE44E" stroke-width="4" stroke-linecap="round"/>
<path d="M240 310.251C240 310.251 254.066 336.001 300 336.001C334.719 336.001 374.778 284.166 420 284.001C465.222 283.836 480 310.251 480 310.251" stroke="#FFE44E" stroke-width="4" stroke-linecap="round"/>
<path d="M0 286.251C0 286.251 14.0661 312.001 60 312.001C94.7188 312.001 134.778 260.166 180 260.001C225.222 259.836 240 286.251 240 286.251" stroke="#FFE44E" stroke-width="4" stroke-linecap="round"/>
<path d="M240 286.251C240 286.251 254.066 312.001 300 312.001C334.719 312.001 374.778 260.166 420 260.001C465.222 259.836 480 286.251 480 286.251" stroke="#FFE44E" stroke-width="4" stroke-linecap="round"/>
<path d="M0 334.251C0 334.251 14.0661 360.001 60 360.001C94.7188 360.001 134.778 308.166 180 308.001C225.222 307.836 240 334.251 240 334.251" stroke="#FFE44E" stroke-width="4" stroke-linecap="round"/>
<path d="M240 334.251C240 334.251 254.066 360.001 300 360.001C334.719 360.001 374.778 308.166 420 308.001C465.222 307.836 480 334.251 480 334.251" stroke="#FFE44E" stroke-width="4" stroke-linecap="round"/>
<path d="M0 358.251C0 358.251 14.0661 384.001 60 384.001C94.7188 384.001 134.778 332.166 180 332.001C225.222 331.836 240 358.251 240 358.251" stroke="#FFE44E" stroke-width="4" stroke-linecap="round"/>
<path d="M240 358.251C240 358.251 254.066 384.001 300 384.001C334.719 384.001 374.778 332.166 420 332.001C465.222 331.836 480 358.251 480 358.251" stroke="#FFE44E" stroke-width="4" stroke-linecap="round"/>
<path d="M0 406.251C0 406.251 14.0661 432.001 60 432.001C94.7188 432.001 134.778 380.166 180 380.001C225.222 379.836 240 406.251 240 406.251" stroke="#FFE44E" stroke-width="4" stroke-linecap="round"/>
<path d="M0 478.251C0 478.251 14.0661 504.001 60 504.001C94.7188 504.001 134.778 452.166 180 452.001C225.222 451.836 240 478.251 240 478.251" stroke="#FFE44E" stroke-width="4" stroke-linecap="round"/>
<path d="M240 406.251C240 406.251 254.066 432.001 300 432.001C334.719 432.001 374.778 380.166 420 380.001C465.222 379.836 480 406.251 480 406.251" stroke="#FFE44E" stroke-width="4" stroke-linecap="round"/>
<path d="M240 478.251C240 478.251 254.066 504.001 300 504.001C334.719 504.001 374.778 452.166 420 452.001C465.222 451.836 480 478.251 480 478.251" stroke="#FFE44E" stroke-width="4" stroke-linecap="round"/>
<path d="M0 382.251C0 382.251 14.0661 408.001 60 408.001C94.7188 408.001 134.778 356.166 180 356.001C225.222 355.836 240 382.251 240 382.251" stroke="#FFE44E" stroke-width="4" stroke-linecap="round"/>
<path d="M0 454.251C0 454.251 14.0661 480.001 60 480.001C94.7188 480.001 134.778 428.166 180 428.001C225.222 427.836 240 454.251 240 454.251" stroke="#FFE44E" stroke-width="4" stroke-linecap="round"/>
<path d="M240 382.251C240 382.251 254.066 408.001 300 408.001C334.719 408.001 374.778 356.166 420 356.001C465.222 355.836 480 382.251 480 382.251" stroke="#FFE44E" stroke-width="4" stroke-linecap="round"/>
<path d="M240 454.251C240 454.251 254.066 480.001 300 480.001C334.719 480.001 374.778 428.166 420 428.001C465.222 427.836 480 454.251 480 454.251" stroke="#FFE44E" stroke-width="4" stroke-linecap="round"/>
<path d="M0 430.251C0 430.251 14.0661 456.001 60 456.001C94.7188 456.001 134.778 404.166 180 404.001C225.222 403.836 240 430.251 240 430.251" stroke="#FFE44E" stroke-width="4" stroke-linecap="round"/>
<path d="M0 502.251C0 502.251 14.0661 528.001 60 528.001C94.7188 528.001 134.778 476.166 180 476.001C225.222 475.836 240 502.251 240 502.251" stroke="#FFE44E" stroke-width="4" stroke-linecap="round"/>
<path d="M240 430.251C240 430.251 254.066 456.001 300 456.001C334.719 456.001 374.778 404.166 420 404.001C465.222 403.836 480 430.251 480 430.251" stroke="#FFE44E" stroke-width="4" stroke-linecap="round"/>
<path d="M240 502.251C240 502.251 254.066 528.001 300 528.001C334.719 528.001 374.778 476.166 420 476.001C465.222 475.836 480 502.251 480 502.251" stroke="#FFE44E" stroke-width="4" stroke-linecap="round"/>
</g>
</svg>
