<svg width="29" height="29" viewBox="0 0 29 29" fill="none" xmlns="http://www.w3.org/2000/svg">
<path fill-rule="evenodd" clip-rule="evenodd" d="M14.5 29C22.5081 29 29 22.5081 29 14.5C29 6.49187 22.5081 0 14.5 0C6.49187 0 0 6.49187 0 14.5C0 22.5081 6.49187 29 14.5 29Z" fill="#1560FF"/>
<path fill-rule="evenodd" clip-rule="evenodd" d="M22.2111 15.6223C22.9482 15.2538 22.9482 14.202 22.2111 13.8335L16.4472 10.9515C15.7823 10.6191 15 11.1026 15 11.8459V13.8459H7C6.44772 13.8459 6 14.2937 6 14.8459C6 15.3982 6.44772 15.8459 7 15.8459H15V17.6099C15 18.3533 15.7823 18.8368 16.4472 18.5043L22.2111 15.6223Z" fill="white"/>
</svg>
