<svg width="99" height="21" viewBox="0 0 99 21" fill="none" xmlns="http://www.w3.org/2000/svg">
<path d="M2.38184 17.1846C3.2168 17.1846 3.70898 16.6748 3.70898 15.8047V12.3594H5.96777L8.07715 16.1826C8.50781 16.9561 8.79785 17.1846 9.43066 17.1846C10.2041 17.1846 10.7666 16.6748 10.7666 15.9717C10.7666 15.6641 10.7051 15.4355 10.4854 15.0576L8.65723 11.8936C10.0547 11.2959 10.8369 9.94238 10.8369 8.36035C10.8369 5.85547 9.16699 4.31738 6.24902 4.31738H2.38184C1.54688 4.31738 1.05469 4.82715 1.05469 5.69727V15.8047C1.05469 16.6748 1.55566 17.1846 2.38184 17.1846ZM3.70898 10.4346V6.3916H5.96777C7.28613 6.3916 8.1123 7.18262 8.1123 8.41309C8.1123 9.66992 7.33008 10.4346 5.99414 10.4346H3.70898ZM13.9131 17.167C14.748 17.167 15.2402 16.6572 15.2402 15.7871V5.53027C15.2402 4.65137 14.748 4.1416 13.9131 4.1416C13.0781 4.1416 12.5859 4.65137 12.5859 5.53027V15.7871C12.5859 16.6572 13.0781 17.167 13.9131 17.167ZM18.6768 17H22.1924C25.998 17 28.2393 14.6357 28.2393 10.6104C28.2393 6.58496 25.998 4.31738 22.1924 4.31738H18.6768C17.8418 4.31738 17.3496 4.82715 17.3496 5.69727V15.6113C17.3496 16.4902 17.8418 17 18.6768 17ZM20.0039 14.8027V6.50586H21.876C24.2139 6.50586 25.5322 7.96484 25.5322 10.6191C25.5322 13.3613 24.249 14.8027 21.876 14.8027H20.0039ZM31.2803 17H37.3096C38.0391 17 38.5137 16.5869 38.5137 15.9014C38.5137 15.2158 38.0303 14.8027 37.3096 14.8027H32.6074V11.6035H37.0811C37.749 11.6035 38.1885 11.2168 38.1885 10.584C38.1885 9.95117 37.7402 9.56445 37.0811 9.56445H32.6074V6.51465H37.3096C38.0303 6.51465 38.5137 6.10156 38.5137 5.41602C38.5137 4.73047 38.0391 4.31738 37.3096 4.31738H31.2803C30.4453 4.31738 29.9531 4.82715 29.9531 5.69727V15.6113C29.9531 16.4902 30.4453 17 31.2803 17Z" fill="black"/>
<line x1="48.5" y1="1.5" x2="48.5" y2="18.5" stroke="#1460FF" stroke-linecap="round" stroke-linejoin="round"/>
<path d="M60.7891 16.1875C63.3125 16.1875 64.9531 14.8828 64.9531 12.7969C64.9531 11.2031 64.0234 10.2656 61.6719 9.75L60.4219 9.47656C58.8828 9.14062 58.2812 8.53125 58.2812 7.64062C58.2812 6.49219 59.3672 5.80469 60.7734 5.80469C61.9922 5.80469 62.9219 6.30469 63.3125 7.44531C63.4375 7.80469 63.6562 7.99219 64.0156 7.99219C64.3906 7.99219 64.6562 7.74219 64.6562 7.35938C64.6562 7.21094 64.6406 7.09375 64.6172 7.00781C64.2109 5.48438 62.6953 4.53906 60.8125 4.53906C58.4766 4.53906 56.8359 5.84375 56.8359 7.70312C56.8359 9.30469 57.8125 10.3281 60.0703 10.8203L61.3203 11.0938C62.8828 11.4375 63.5078 12.0625 63.5078 13.0078C63.5078 14.1172 62.3984 14.9219 60.8672 14.9219C59.4453 14.9219 58.3359 14.375 57.9922 13.2109C57.8828 12.8359 57.6641 12.6562 57.3125 12.6562C56.9141 12.6562 56.6641 12.9375 56.6641 13.3828C56.6641 13.5469 56.6953 13.7188 56.7422 13.875C57.1641 15.2344 58.6719 16.1875 60.7891 16.1875ZM68.75 16.1406C69.8438 16.1406 70.8828 15.5312 71.3672 14.6016H71.3984V15.4531C71.3984 15.8594 71.6641 16.1406 72.0469 16.1406C72.4219 16.1406 72.6875 15.8594 72.6875 15.4531V10.3828C72.6875 8.76562 71.4844 7.73438 69.5781 7.73438C68.2578 7.73438 67.0703 8.32031 66.6094 9.21094C66.5 9.40625 66.4453 9.60156 66.4453 9.77344C66.4453 10.1406 66.6953 10.3828 67.0469 10.3828C67.3047 10.3828 67.4844 10.2812 67.6094 10.0547C68.0625 9.25 68.6641 8.92969 69.5469 8.92969C70.6719 8.92969 71.3281 9.52344 71.3281 10.5156V11.1953L68.9922 11.3281C67.1172 11.4375 66.0469 12.3125 66.0469 13.7031C66.0469 15.1641 67.1328 16.1406 68.75 16.1406ZM69.0547 14.9844C68.0781 14.9844 67.4297 14.4766 67.4297 13.7031C67.4297 12.9375 68.0547 12.4531 69.1484 12.3828L71.3281 12.25V12.9141C71.3281 14.0859 70.3359 14.9844 69.0547 14.9844ZM75.1172 16.1406C75.5078 16.1406 75.7812 15.8672 75.7812 15.4766V14.625H75.8125C76.3438 15.5625 77.2734 16.1406 78.4609 16.1406C80.5391 16.1406 81.9141 14.4922 81.9141 11.9375C81.9141 9.39062 80.5312 7.73438 78.4844 7.73438C77.3359 7.73438 76.3906 8.30469 75.875 9.23438H75.8438V5.3125C75.8438 4.88281 75.5625 4.58594 75.1641 4.58594C74.7656 4.58594 74.4844 4.88281 74.4844 5.3125V15.4766C74.4844 15.875 74.7344 16.1406 75.1172 16.1406ZM78.1953 14.9453C76.8203 14.9453 75.8359 13.75 75.8359 11.9375C75.8359 10.1328 76.8203 8.92969 78.1953 8.92969C79.6328 8.92969 80.5234 10.0938 80.5234 11.9375C80.5234 13.7969 79.6328 14.9453 78.1953 14.9453ZM85.6562 16.1406C86.75 16.1406 87.7891 15.5312 88.2734 14.6016H88.3047V15.4531C88.3047 15.8594 88.5703 16.1406 88.9531 16.1406C89.3281 16.1406 89.5938 15.8594 89.5938 15.4531V10.3828C89.5938 8.76562 88.3906 7.73438 86.4844 7.73438C85.1641 7.73438 83.9766 8.32031 83.5156 9.21094C83.4062 9.40625 83.3516 9.60156 83.3516 9.77344C83.3516 10.1406 83.6016 10.3828 83.9531 10.3828C84.2109 10.3828 84.3906 10.2812 84.5156 10.0547C84.9688 9.25 85.5703 8.92969 86.4531 8.92969C87.5781 8.92969 88.2344 9.52344 88.2344 10.5156V11.1953L85.8984 11.3281C84.0234 11.4375 82.9531 12.3125 82.9531 13.7031C82.9531 15.1641 84.0391 16.1406 85.6562 16.1406ZM85.9609 14.9844C84.9844 14.9844 84.3359 14.4766 84.3359 13.7031C84.3359 12.9375 84.9609 12.4531 86.0547 12.3828L88.2344 12.25V12.9141C88.2344 14.0859 87.2422 14.9844 85.9609 14.9844ZM92.1172 19.0391C93.4609 19.0391 94.125 18.4375 94.8281 16.5703L97.8281 8.71875C97.875 8.58594 97.8984 8.46094 97.8984 8.35938C97.8984 7.99219 97.625 7.73438 97.2344 7.73438C96.8984 7.73438 96.7188 7.875 96.5938 8.23438L94.3438 14.6406H94.3203L92.0781 8.23438C91.9531 7.875 91.75 7.73438 91.4297 7.73438C91.0391 7.73438 90.75 7.98438 90.75 8.35938C90.75 8.46094 90.7734 8.58594 90.8203 8.71875L93.6172 16.0078L93.4297 16.5781C93.1094 17.5625 92.6172 17.875 92.1016 17.875C91.8906 17.875 91.8359 17.8672 91.6406 17.8672C91.2969 17.8672 91.0938 18.0703 91.0938 18.3672C91.0938 18.7969 91.4609 19.0391 92.1172 19.0391Z" fill="#818181"/>
</svg>
