<svg width="158" height="32" viewBox="0 0 158 32" fill="none" xmlns="http://www.w3.org/2000/svg">
<path d="M18.1011 12.3022C18.0879 9.03271 15.5303 6.96289 10.1777 6.96289H0.804199V8.41309C2.75537 8.63721 2.99268 8.90088 2.99268 10.061V22.9019C2.99268 24.062 2.75537 24.3257 0.804199 24.5498V26H9.68994V24.5498C7.91016 24.3257 7.65967 24.0884 7.65967 22.9678V18.0239H10.2173L14.291 26H19.4985V24.6289C18.668 24.3916 18.1406 23.8643 16.73 21.2407L14.502 17.0352C16.7168 16.231 18.1274 14.6094 18.1011 12.3022ZM13.3813 12.5396C13.3813 14.9653 11.7202 16.2178 9.09668 16.3101L7.65967 16.3496V8.62402L8.91211 8.66357C11.8652 8.76904 13.3813 10.1401 13.3813 12.5396ZM27.2241 22.9019V10.061C27.2241 8.90088 27.4614 8.63721 29.4126 8.41309V6.96289H20.3687V8.41309C22.3198 8.63721 22.5571 8.90088 22.5571 10.061V22.9019C22.5571 24.062 22.3198 24.3257 20.3687 24.5498V26H29.4126V24.5498C27.4614 24.3257 27.2241 24.062 27.2241 22.9019ZM50.9678 16.2046C50.9678 10.2983 46.459 6.96289 40.0122 6.96289H31.021V8.41309C32.9722 8.63721 33.2095 8.90088 33.2095 10.061V22.9019C33.2095 24.062 32.9722 24.3257 31.021 24.5498V26H40.2627C46.1294 26 50.9678 22.0977 50.9678 16.2046ZM45.8262 16.4683C45.8262 21.2407 43.2554 24.1543 39.3398 24.2861L37.8765 24.3389V8.62402L39.3398 8.67676C43.2817 8.80859 45.813 11.8145 45.8262 16.4683ZM68.4888 6.96289H52.853V8.41309C54.8042 8.63721 55.0415 8.90088 55.0415 10.061V22.9019C55.0415 24.062 54.8042 24.3257 52.853 24.5498V26H69.0952L69.2534 20.3179H67.8823C67.1045 23.772 66.4058 24.1147 63.0044 24.2202L59.7085 24.3389V17.1143H62.5825C63.5186 17.1143 63.8218 17.4702 64.2173 19.6982H65.5093V12.8691H64.2173C63.7954 15.0972 63.4922 15.4531 62.5825 15.4531H59.7085V8.62402L62.7935 8.72949C65.7993 8.82178 66.5376 9.30957 67.2495 12.1309H68.6206L68.4888 6.96289Z" fill="#181818"/>
<path d="M101.385 24.7812C105.17 24.7812 107.631 22.8242 107.631 19.6953C107.631 17.3047 106.237 15.8984 102.709 15.125L100.834 14.7148C98.5259 14.2109 97.6235 13.2969 97.6235 11.9609C97.6235 10.2383 99.2524 9.20703 101.362 9.20703C103.19 9.20703 104.584 9.95703 105.17 11.668C105.358 12.207 105.686 12.4883 106.225 12.4883C106.788 12.4883 107.186 12.1133 107.186 11.5391C107.186 11.3164 107.163 11.1406 107.127 11.0117C106.518 8.72656 104.245 7.30859 101.42 7.30859C97.9165 7.30859 95.4556 9.26562 95.4556 12.0547C95.4556 14.457 96.9204 15.9922 100.307 16.7305L102.182 17.1406C104.526 17.6562 105.463 18.5938 105.463 20.0117C105.463 21.6758 103.799 22.8828 101.502 22.8828C99.3696 22.8828 97.7056 22.0625 97.1899 20.3164C97.0259 19.7539 96.6978 19.4844 96.1704 19.4844C95.5728 19.4844 95.1978 19.9062 95.1978 20.5742C95.1978 20.8203 95.2446 21.0781 95.3149 21.3125C95.9478 23.3516 98.2095 24.7812 101.385 24.7812ZM113.327 24.7109C114.967 24.7109 116.526 23.7969 117.252 22.4023H117.299V23.6797C117.299 24.2891 117.698 24.7109 118.272 24.7109C118.834 24.7109 119.233 24.2891 119.233 23.6797V16.0742C119.233 13.6484 117.428 12.1016 114.569 12.1016C112.588 12.1016 110.807 12.9805 110.116 14.3164C109.952 14.6094 109.87 14.9023 109.87 15.1602C109.87 15.7109 110.245 16.0742 110.772 16.0742C111.159 16.0742 111.428 15.9219 111.616 15.582C112.295 14.375 113.198 13.8945 114.522 13.8945C116.209 13.8945 117.194 14.7852 117.194 16.2734V17.293L113.69 17.4922C110.877 17.6562 109.272 18.9688 109.272 21.0547C109.272 23.2461 110.901 24.7109 113.327 24.7109ZM113.784 22.9766C112.319 22.9766 111.346 22.2148 111.346 21.0547C111.346 19.9062 112.284 19.1797 113.924 19.0742L117.194 18.875V19.8711C117.194 21.6289 115.706 22.9766 113.784 22.9766ZM122.877 24.7109C123.463 24.7109 123.874 24.3008 123.874 23.7148V22.4375H123.92C124.717 23.8438 126.112 24.7109 127.893 24.7109C131.01 24.7109 133.073 22.2383 133.073 18.4062C133.073 14.5859 130.999 12.1016 127.928 12.1016C126.206 12.1016 124.788 12.957 124.014 14.3516H123.967V8.46875C123.967 7.82422 123.545 7.37891 122.948 7.37891C122.35 7.37891 121.928 7.82422 121.928 8.46875V23.7148C121.928 24.3125 122.303 24.7109 122.877 24.7109ZM127.495 22.918C125.432 22.918 123.956 21.125 123.956 18.4062C123.956 15.6992 125.432 13.8945 127.495 13.8945C129.651 13.8945 130.987 15.6406 130.987 18.4062C130.987 21.1953 129.651 22.918 127.495 22.918ZM138.686 24.7109C140.327 24.7109 141.885 23.7969 142.612 22.4023H142.659V23.6797C142.659 24.2891 143.057 24.7109 143.631 24.7109C144.194 24.7109 144.592 24.2891 144.592 23.6797V16.0742C144.592 13.6484 142.788 12.1016 139.928 12.1016C137.948 12.1016 136.167 12.9805 135.475 14.3164C135.311 14.6094 135.229 14.9023 135.229 15.1602C135.229 15.7109 135.604 16.0742 136.131 16.0742C136.518 16.0742 136.788 15.9219 136.975 15.582C137.655 14.375 138.557 13.8945 139.881 13.8945C141.569 13.8945 142.553 14.7852 142.553 16.2734V17.293L139.049 17.4922C136.237 17.6562 134.631 18.9688 134.631 21.0547C134.631 23.2461 136.26 24.7109 138.686 24.7109ZM139.143 22.9766C137.678 22.9766 136.706 22.2148 136.706 21.0547C136.706 19.9062 137.643 19.1797 139.284 19.0742L142.553 18.875V19.8711C142.553 21.6289 141.065 22.9766 139.143 22.9766ZM148.377 29.0586C150.393 29.0586 151.389 28.1562 152.444 25.3555L156.944 13.5781C157.014 13.3789 157.049 13.1914 157.049 13.0391C157.049 12.4883 156.639 12.1016 156.053 12.1016C155.549 12.1016 155.28 12.3125 155.092 12.8516L151.717 22.4609H151.682L148.319 12.8516C148.131 12.3125 147.827 12.1016 147.346 12.1016C146.76 12.1016 146.327 12.4766 146.327 13.0391C146.327 13.1914 146.362 13.3789 146.432 13.5781L150.627 24.5117L150.346 25.3672C149.866 26.8438 149.127 27.3125 148.354 27.3125C148.038 27.3125 147.956 27.3008 147.663 27.3008C147.147 27.3008 146.842 27.6055 146.842 28.0508C146.842 28.6953 147.393 29.0586 148.377 29.0586Z" fill="#818181"/>
<path d="M82.2398 4.5V28.5" stroke="#1460FF" stroke-width="1.5" stroke-linecap="round"/>
</svg>
