<svg width="166" height="38" viewBox="0 0 166 38" fill="none" xmlns="http://www.w3.org/2000/svg">
<path d="M4.23438 30.3281C5.71875 30.3281 6.59375 29.4219 6.59375 27.875V21.75H10.6094L14.3594 28.5469C15.125 29.9219 15.6406 30.3281 16.7656 30.3281C18.1406 30.3281 19.1406 29.4219 19.1406 28.1719C19.1406 27.625 19.0312 27.2188 18.6406 26.5469L15.3906 20.9219C17.875 19.8594 19.2656 17.4531 19.2656 14.6406C19.2656 10.1875 16.2969 7.45312 11.1094 7.45312H4.23438C2.75 7.45312 1.875 8.35938 1.875 9.90625V27.875C1.875 29.4219 2.76562 30.3281 4.23438 30.3281ZM6.59375 18.3281V11.1406H10.6094C12.9531 11.1406 14.4219 12.5469 14.4219 14.7344C14.4219 16.9688 13.0312 18.3281 10.6562 18.3281H6.59375ZM24.7344 30.2969C26.2188 30.2969 27.0938 29.3906 27.0938 27.8438V9.60938C27.0938 8.04688 26.2188 7.14062 24.7344 7.14062C23.25 7.14062 22.375 8.04688 22.375 9.60938V27.8438C22.375 29.3906 23.25 30.2969 24.7344 30.2969ZM33.2031 30H39.4531C46.2188 30 50.2031 25.7969 50.2031 18.6406C50.2031 11.4844 46.2188 7.45312 39.4531 7.45312H33.2031C31.7188 7.45312 30.8438 8.35938 30.8438 9.90625V27.5312C30.8438 29.0938 31.7188 30 33.2031 30ZM35.5625 26.0938V11.3438H38.8906C43.0469 11.3438 45.3906 13.9375 45.3906 18.6562C45.3906 23.5312 43.1094 26.0938 38.8906 26.0938H35.5625ZM55.6094 30H66.3281C67.625 30 68.4688 29.2656 68.4688 28.0469C68.4688 26.8281 67.6094 26.0938 66.3281 26.0938H57.9688V20.4062H65.9219C67.1094 20.4062 67.8906 19.7188 67.8906 18.5938C67.8906 17.4688 67.0938 16.7812 65.9219 16.7812H57.9688V11.3594H66.3281C67.6094 11.3594 68.4688 10.625 68.4688 9.40625C68.4688 8.1875 67.625 7.45312 66.3281 7.45312H55.6094C54.125 7.45312 53.25 8.35938 53.25 9.90625V27.5312C53.25 29.0938 54.125 30 55.6094 30Z" fill="black"/>
<line x1="87" y1="6" x2="87" y2="32" stroke="#1460FF" stroke-width="2" stroke-linecap="round" stroke-linejoin="round"/>
<path d="M109.184 28.2812C112.969 28.2812 115.43 26.3242 115.43 23.1953C115.43 20.8047 114.035 19.3984 110.508 18.625L108.633 18.2148C106.324 17.7109 105.422 16.7969 105.422 15.4609C105.422 13.7383 107.051 12.707 109.16 12.707C110.988 12.707 112.383 13.457 112.969 15.168C113.156 15.707 113.484 15.9883 114.023 15.9883C114.586 15.9883 114.984 15.6133 114.984 15.0391C114.984 14.8164 114.961 14.6406 114.926 14.5117C114.316 12.2266 112.043 10.8086 109.219 10.8086C105.715 10.8086 103.254 12.7656 103.254 15.5547C103.254 17.957 104.719 19.4922 108.105 20.2305L109.98 20.6406C112.324 21.1562 113.262 22.0938 113.262 23.5117C113.262 25.1758 111.598 26.3828 109.301 26.3828C107.168 26.3828 105.504 25.5625 104.988 23.8164C104.824 23.2539 104.496 22.9844 103.969 22.9844C103.371 22.9844 102.996 23.4062 102.996 24.0742C102.996 24.3203 103.043 24.5781 103.113 24.8125C103.746 26.8516 106.008 28.2812 109.184 28.2812ZM121.125 28.2109C122.766 28.2109 124.324 27.2969 125.051 25.9023H125.098V27.1797C125.098 27.7891 125.496 28.2109 126.07 28.2109C126.633 28.2109 127.031 27.7891 127.031 27.1797V19.5742C127.031 17.1484 125.227 15.6016 122.367 15.6016C120.387 15.6016 118.605 16.4805 117.914 17.8164C117.75 18.1094 117.668 18.4023 117.668 18.6602C117.668 19.2109 118.043 19.5742 118.57 19.5742C118.957 19.5742 119.227 19.4219 119.414 19.082C120.094 17.875 120.996 17.3945 122.32 17.3945C124.008 17.3945 124.992 18.2852 124.992 19.7734V20.793L121.488 20.9922C118.676 21.1562 117.07 22.4688 117.07 24.5547C117.07 26.7461 118.699 28.2109 121.125 28.2109ZM121.582 26.4766C120.117 26.4766 119.145 25.7148 119.145 24.5547C119.145 23.4062 120.082 22.6797 121.723 22.5742L124.992 22.375V23.3711C124.992 25.1289 123.504 26.4766 121.582 26.4766ZM130.676 28.2109C131.262 28.2109 131.672 27.8008 131.672 27.2148V25.9375H131.719C132.516 27.3438 133.91 28.2109 135.691 28.2109C138.809 28.2109 140.871 25.7383 140.871 21.9062C140.871 18.0859 138.797 15.6016 135.727 15.6016C134.004 15.6016 132.586 16.457 131.812 17.8516H131.766V11.9688C131.766 11.3242 131.344 10.8789 130.746 10.8789C130.148 10.8789 129.727 11.3242 129.727 11.9688V27.2148C129.727 27.8125 130.102 28.2109 130.676 28.2109ZM135.293 26.418C133.23 26.418 131.754 24.625 131.754 21.9062C131.754 19.1992 133.23 17.3945 135.293 17.3945C137.449 17.3945 138.785 19.1406 138.785 21.9062C138.785 24.6953 137.449 26.418 135.293 26.418ZM146.484 28.2109C148.125 28.2109 149.684 27.2969 150.41 25.9023H150.457V27.1797C150.457 27.7891 150.855 28.2109 151.43 28.2109C151.992 28.2109 152.391 27.7891 152.391 27.1797V19.5742C152.391 17.1484 150.586 15.6016 147.727 15.6016C145.746 15.6016 143.965 16.4805 143.273 17.8164C143.109 18.1094 143.027 18.4023 143.027 18.6602C143.027 19.2109 143.402 19.5742 143.93 19.5742C144.316 19.5742 144.586 19.4219 144.773 19.082C145.453 17.875 146.355 17.3945 147.68 17.3945C149.367 17.3945 150.352 18.2852 150.352 19.7734V20.793L146.848 20.9922C144.035 21.1562 142.43 22.4688 142.43 24.5547C142.43 26.7461 144.059 28.2109 146.484 28.2109ZM146.941 26.4766C145.477 26.4766 144.504 25.7148 144.504 24.5547C144.504 23.4062 145.441 22.6797 147.082 22.5742L150.352 22.375V23.3711C150.352 25.1289 148.863 26.4766 146.941 26.4766ZM156.176 32.5586C158.191 32.5586 159.188 31.6562 160.242 28.8555L164.742 17.0781C164.812 16.8789 164.848 16.6914 164.848 16.5391C164.848 15.9883 164.438 15.6016 163.852 15.6016C163.348 15.6016 163.078 15.8125 162.891 16.3516L159.516 25.9609H159.48L156.117 16.3516C155.93 15.8125 155.625 15.6016 155.145 15.6016C154.559 15.6016 154.125 15.9766 154.125 16.5391C154.125 16.6914 154.16 16.8789 154.23 17.0781L158.426 28.0117L158.145 28.8672C157.664 30.3438 156.926 30.8125 156.152 30.8125C155.836 30.8125 155.754 30.8008 155.461 30.8008C154.945 30.8008 154.641 31.1055 154.641 31.5508C154.641 32.1953 155.191 32.5586 156.176 32.5586Z" fill="#818181"/>
</svg>
