<svg width="402" height="63" viewBox="0 0 402 63" fill="none" xmlns="http://www.w3.org/2000/svg">
<g filter="url(#filter0_i)">
<path fill-rule="evenodd" clip-rule="evenodd" d="M17.7453 19C16.4804 20.8135 14.3787 22 12 22C8.13401 22 5 18.866 5 15C5 11.134 8.13401 8 12 8C14.3787 8 16.4804 9.18652 17.7453 11H82.2547C83.5196 9.18652 85.6213 8 88 8C90.3787 8 92.4804 9.18652 93.7453 11H157.255C158.52 9.18652 160.621 8 163 8C165.379 8 167.48 9.18652 168.745 11H233.255C234.52 9.18652 236.621 8 239 8C241.379 8 243.48 9.18652 244.745 11H308.255C309.52 9.18652 311.621 8 314 8C316.379 8 318.48 9.18652 319.745 11H384.255C385.52 9.18652 387.621 8 390 8C393.866 8 397 11.134 397 15C397 18.866 393.866 22 390 22C387.621 22 385.52 20.8135 384.255 19H319.745C318.48 20.8135 316.379 22 314 22C311.621 22 309.52 20.8135 308.255 19H244.745C243.48 20.8135 241.379 22 239 22C236.621 22 234.52 20.8135 233.255 19H168.745C167.48 20.8135 165.379 22 163 22C160.621 22 158.52 20.8135 157.255 19H93.7453C92.4804 20.8135 90.3787 22 88 22C85.6213 22 83.5196 20.8135 82.2547 19H17.7453Z" fill="#E9E9E9"/>
</g>
<path d="M12.1523 46.1465C13.8867 46.1465 15.1465 44.9277 15.1465 43.2578C15.1465 41.6523 13.9512 40.4629 12.3398 40.4629C11.1914 40.4629 10.3242 41.0723 9.97852 41.834H9.96094V41.7578C10.0137 39.5547 10.8164 38.3301 12.2109 38.3301C12.9199 38.3301 13.4414 38.6289 13.8457 39.2676C14.0332 39.5664 14.1797 39.6777 14.3906 39.6777C14.6719 39.6777 14.877 39.4902 14.877 39.2266C14.877 39.0566 14.8301 38.9102 14.7246 38.7285C14.25 37.9023 13.3066 37.3984 12.2227 37.3984C10.1543 37.3984 8.94141 39.0684 8.94141 41.916C8.94141 42.8301 9.07617 43.5918 9.35742 44.2422C9.87891 45.4609 10.8867 46.1465 12.1523 46.1465ZM12.1406 45.209C11.0566 45.209 10.2129 44.3477 10.2129 43.2637C10.2129 42.1855 11.0391 41.3887 12.1582 41.3887C13.2773 41.3887 14.0742 42.1855 14.0742 43.293C14.0742 44.3594 13.2188 45.209 12.1406 45.209ZM3.50391 60.082C3.82617 60.082 4.03125 59.8711 4.03125 59.5371V52.4941H6.28125C6.58008 52.4941 6.78516 52.3008 6.78516 52.0195C6.78516 51.7383 6.58008 51.5449 6.28125 51.5449H0.726562C0.427734 51.5449 0.222656 51.7383 0.222656 52.0195C0.222656 52.3008 0.427734 52.4941 0.726562 52.4941H2.97656V59.5371C2.97656 59.8711 3.18164 60.082 3.50391 60.082ZM6.81445 60.1055C7.11328 60.1055 7.32422 59.8828 7.32422 59.5605V56.2148C7.32422 55.4355 7.7168 54.7734 8.63672 54.7734C8.85938 54.7734 9.01758 54.7324 9.12305 54.6445C9.22852 54.5625 9.28125 54.4453 9.28125 54.2871C9.28125 54.1465 9.24023 54.0293 9.15234 53.9473C9.05273 53.8535 8.89453 53.8008 8.67188 53.8008C8.0625 53.8008 7.46484 54.2695 7.28906 54.9023H7.26562V54.3164C7.26562 54.0117 7.06641 53.8008 6.78516 53.8008C6.50391 53.8008 6.30469 54.0117 6.30469 54.3164V59.5605C6.30469 59.8828 6.51562 60.1055 6.81445 60.1055ZM10.5703 52.8809C10.9219 52.8809 11.209 52.5938 11.209 52.248C11.209 51.8965 10.9219 51.6152 10.5703 51.6152C10.2246 51.6152 9.9375 51.8965 9.9375 52.248C9.9375 52.5938 10.2246 52.8809 10.5703 52.8809ZM10.5703 60.1055C10.8691 60.1055 11.0801 59.8828 11.0801 59.5605V54.3457C11.0801 54.0234 10.8691 53.8008 10.5703 53.8008C10.2715 53.8008 10.0605 54.0234 10.0605 54.3457V59.5605C10.0605 59.8828 10.2715 60.1055 10.5703 60.1055ZM12.9668 62.1504C13.2656 62.1504 13.4766 61.9277 13.4766 61.6055V59.0098H13.5C13.8633 59.6777 14.5664 60.1055 15.4395 60.1055C16.9746 60.1055 18.0234 58.8633 18.0234 56.9531C18.0234 55.043 16.9688 53.8008 15.416 53.8008C14.5312 53.8008 13.8223 54.252 13.4473 54.9375H13.4238V54.3164C13.4238 54.0117 13.2246 53.8008 12.9434 53.8008C12.6562 53.8008 12.457 54.0117 12.457 54.3164V61.6055C12.457 61.9277 12.668 62.1504 12.9668 62.1504ZM15.2168 59.209C14.1738 59.209 13.4707 58.3125 13.4707 56.9531C13.4707 55.5996 14.1738 54.6973 15.2168 54.6973C16.3008 54.6973 16.9805 55.5762 16.9805 56.9531C16.9805 58.3359 16.3008 59.209 15.2168 59.209ZM21.1699 60.1055C22.6172 60.1055 23.5957 59.373 23.5957 58.2832C23.5957 57.3867 23.127 56.9414 21.8555 56.6309L20.9473 56.4082C20.2793 56.2441 19.9512 55.9512 19.9512 55.5293C19.9512 55.0078 20.4609 54.6387 21.1934 54.6387C21.8145 54.6387 22.207 54.8613 22.4707 55.3711C22.582 55.582 22.7227 55.6465 22.9219 55.6465C23.168 55.6465 23.3203 55.4883 23.3203 55.248C23.3203 55.2012 23.3145 55.1543 23.3027 55.0957C23.1445 54.3633 22.2539 53.8008 21.252 53.8008C19.875 53.8008 18.9434 54.5215 18.9434 55.582C18.9434 56.4375 19.5117 56.9941 20.6895 57.2871L21.6211 57.5215C22.3066 57.6914 22.5586 57.9258 22.5586 58.3652C22.5586 58.9336 22.0312 59.2734 21.252 59.2734C20.4727 59.2734 20.1094 59.0332 19.8047 58.5C19.6875 58.2891 19.541 58.1953 19.3594 58.1953C19.0957 58.1953 18.8965 58.3477 18.8965 58.6172C18.8965 58.6934 18.9082 58.7695 18.9434 58.8574C19.2363 59.6191 20.0859 60.1055 21.1699 60.1055Z" fill="#818181"/>
<path d="M87.7832 46.1406C89.8516 46.1406 91.0586 44.4766 91.0586 41.6289C91.0586 40.709 90.9238 39.9473 90.6426 39.2969C90.127 38.084 89.1191 37.3984 87.8477 37.3984C86.1133 37.3984 84.8535 38.6172 84.8535 40.2871C84.8535 41.8926 86.0488 43.082 87.6602 43.082C88.7383 43.082 89.6641 42.5371 90.0215 41.6992H90.0391V41.7988C89.9863 43.9785 89.207 45.2207 87.7949 45.2207C86.9746 45.2207 86.5176 44.9102 86.1133 44.2715C85.9258 43.9668 85.7793 43.8613 85.5566 43.8613C85.2695 43.8613 85.082 44.043 85.082 44.3125C85.082 44.4648 85.123 44.6055 85.2227 44.7871C85.5566 45.4141 86.4355 46.1406 87.7832 46.1406ZM87.8418 42.1562C86.7344 42.1562 85.9199 41.3535 85.9199 40.252C85.9199 39.1914 86.7754 38.3477 87.8594 38.3477C88.9492 38.3477 89.793 39.1973 89.793 40.2812C89.793 41.3594 88.9609 42.1562 87.8418 42.1562ZM79.5039 60.082C79.8262 60.082 80.0312 59.8711 80.0312 59.5371V52.4941H82.2812C82.5801 52.4941 82.7852 52.3008 82.7852 52.0195C82.7852 51.7383 82.5801 51.5449 82.2812 51.5449H76.7266C76.4277 51.5449 76.2227 51.7383 76.2227 52.0195C76.2227 52.3008 76.4277 52.4941 76.7266 52.4941H78.9766V59.5371C78.9766 59.8711 79.1816 60.082 79.5039 60.082ZM82.8145 60.1055C83.1133 60.1055 83.3242 59.8828 83.3242 59.5605V56.2148C83.3242 55.4355 83.7168 54.7734 84.6367 54.7734C84.8594 54.7734 85.0176 54.7324 85.123 54.6445C85.2285 54.5625 85.2812 54.4453 85.2812 54.2871C85.2812 54.1465 85.2402 54.0293 85.1523 53.9473C85.0527 53.8535 84.8945 53.8008 84.6719 53.8008C84.0625 53.8008 83.4648 54.2695 83.2891 54.9023H83.2656V54.3164C83.2656 54.0117 83.0664 53.8008 82.7852 53.8008C82.5039 53.8008 82.3047 54.0117 82.3047 54.3164V59.5605C82.3047 59.8828 82.5156 60.1055 82.8145 60.1055ZM86.5703 52.8809C86.9219 52.8809 87.209 52.5938 87.209 52.248C87.209 51.8965 86.9219 51.6152 86.5703 51.6152C86.2246 51.6152 85.9375 51.8965 85.9375 52.248C85.9375 52.5938 86.2246 52.8809 86.5703 52.8809ZM86.5703 60.1055C86.8691 60.1055 87.0801 59.8828 87.0801 59.5605V54.3457C87.0801 54.0234 86.8691 53.8008 86.5703 53.8008C86.2715 53.8008 86.0605 54.0234 86.0605 54.3457V59.5605C86.0605 59.8828 86.2715 60.1055 86.5703 60.1055ZM88.9668 62.1504C89.2656 62.1504 89.4766 61.9277 89.4766 61.6055V59.0098H89.5C89.8633 59.6777 90.5664 60.1055 91.4395 60.1055C92.9746 60.1055 94.0234 58.8633 94.0234 56.9531C94.0234 55.043 92.9688 53.8008 91.416 53.8008C90.5312 53.8008 89.8223 54.252 89.4473 54.9375H89.4238V54.3164C89.4238 54.0117 89.2246 53.8008 88.9434 53.8008C88.6562 53.8008 88.457 54.0117 88.457 54.3164V61.6055C88.457 61.9277 88.668 62.1504 88.9668 62.1504ZM91.2168 59.209C90.1738 59.209 89.4707 58.3125 89.4707 56.9531C89.4707 55.5996 90.1738 54.6973 91.2168 54.6973C92.3008 54.6973 92.9805 55.5762 92.9805 56.9531C92.9805 58.3359 92.3008 59.209 91.2168 59.209ZM97.1699 60.1055C98.6172 60.1055 99.5957 59.373 99.5957 58.2832C99.5957 57.3867 99.127 56.9414 97.8555 56.6309L96.9473 56.4082C96.2793 56.2441 95.9512 55.9512 95.9512 55.5293C95.9512 55.0078 96.4609 54.6387 97.1934 54.6387C97.8145 54.6387 98.207 54.8613 98.4707 55.3711C98.582 55.582 98.7227 55.6465 98.9219 55.6465C99.168 55.6465 99.3203 55.4883 99.3203 55.248C99.3203 55.2012 99.3145 55.1543 99.3027 55.0957C99.1445 54.3633 98.2539 53.8008 97.252 53.8008C95.875 53.8008 94.9434 54.5215 94.9434 55.582C94.9434 56.4375 95.5117 56.9941 96.6895 57.2871L97.6211 57.5215C98.3066 57.6914 98.5586 57.9258 98.5586 58.3652C98.5586 58.9336 98.0312 59.2734 97.252 59.2734C96.4727 59.2734 96.1094 59.0332 95.8047 58.5C95.6875 58.2891 95.541 58.1953 95.3594 58.1953C95.0957 58.1953 94.8965 58.3477 94.8965 58.6172C94.8965 58.6934 94.9082 58.7695 94.9434 58.8574C95.2363 59.6191 96.0859 60.1055 97.1699 60.1055Z" fill="#818181"/>
<path d="M160.287 46.1055C160.586 46.1055 160.797 45.8828 160.797 45.5605V38.0312C160.797 37.6621 160.574 37.4395 160.211 37.4395C159.971 37.4395 159.83 37.498 159.502 37.7324L157.691 39.0273C157.469 39.1855 157.398 39.3086 157.398 39.4961C157.398 39.7539 157.568 39.9297 157.814 39.9297C157.943 39.9297 158.055 39.8887 158.172 39.8066L159.754 38.6992H159.777V45.5605C159.777 45.8828 159.988 46.1055 160.287 46.1055ZM163.428 46H168.086C168.385 46 168.584 45.8125 168.584 45.5312C168.584 45.25 168.385 45.0625 168.086 45.0625H164.395V45.0391L166.516 42.8594C167.963 41.377 168.385 40.6797 168.385 39.7539C168.385 38.3887 167.283 37.4043 165.76 37.4043C164.031 37.4043 163.1 38.5293 162.977 39.3965C162.965 39.4668 162.959 39.5312 162.959 39.6074C162.959 39.8828 163.135 40.0762 163.445 40.0762C163.732 40.0762 163.85 39.9238 163.92 39.707C164.207 38.7988 164.846 38.3242 165.76 38.3242C166.668 38.3242 167.33 38.957 167.33 39.8184C167.33 40.5273 167.061 40.9785 165.924 42.168L163.217 44.9922C162.965 45.2559 162.918 45.3496 162.918 45.5664C162.918 45.8301 163.117 46 163.428 46ZM154.504 60.082C154.826 60.082 155.031 59.8711 155.031 59.5371V52.4941H157.281C157.58 52.4941 157.785 52.3008 157.785 52.0195C157.785 51.7383 157.58 51.5449 157.281 51.5449H151.727C151.428 51.5449 151.223 51.7383 151.223 52.0195C151.223 52.3008 151.428 52.4941 151.727 52.4941H153.977V59.5371C153.977 59.8711 154.182 60.082 154.504 60.082ZM157.814 60.1055C158.113 60.1055 158.324 59.8828 158.324 59.5605V56.2148C158.324 55.4355 158.717 54.7734 159.637 54.7734C159.859 54.7734 160.018 54.7324 160.123 54.6445C160.229 54.5625 160.281 54.4453 160.281 54.2871C160.281 54.1465 160.24 54.0293 160.152 53.9473C160.053 53.8535 159.895 53.8008 159.672 53.8008C159.062 53.8008 158.465 54.2695 158.289 54.9023H158.266V54.3164C158.266 54.0117 158.066 53.8008 157.785 53.8008C157.504 53.8008 157.305 54.0117 157.305 54.3164V59.5605C157.305 59.8828 157.516 60.1055 157.814 60.1055ZM161.57 52.8809C161.922 52.8809 162.209 52.5938 162.209 52.248C162.209 51.8965 161.922 51.6152 161.57 51.6152C161.225 51.6152 160.938 51.8965 160.938 52.248C160.938 52.5938 161.225 52.8809 161.57 52.8809ZM161.57 60.1055C161.869 60.1055 162.08 59.8828 162.08 59.5605V54.3457C162.08 54.0234 161.869 53.8008 161.57 53.8008C161.271 53.8008 161.061 54.0234 161.061 54.3457V59.5605C161.061 59.8828 161.271 60.1055 161.57 60.1055ZM163.967 62.1504C164.266 62.1504 164.477 61.9277 164.477 61.6055V59.0098H164.5C164.863 59.6777 165.566 60.1055 166.439 60.1055C167.975 60.1055 169.023 58.8633 169.023 56.9531C169.023 55.043 167.969 53.8008 166.416 53.8008C165.531 53.8008 164.822 54.252 164.447 54.9375H164.424V54.3164C164.424 54.0117 164.225 53.8008 163.943 53.8008C163.656 53.8008 163.457 54.0117 163.457 54.3164V61.6055C163.457 61.9277 163.668 62.1504 163.967 62.1504ZM166.217 59.209C165.174 59.209 164.471 58.3125 164.471 56.9531C164.471 55.5996 165.174 54.6973 166.217 54.6973C167.301 54.6973 167.98 55.5762 167.98 56.9531C167.98 58.3359 167.301 59.209 166.217 59.209ZM172.17 60.1055C173.617 60.1055 174.596 59.373 174.596 58.2832C174.596 57.3867 174.127 56.9414 172.855 56.6309L171.947 56.4082C171.279 56.2441 170.951 55.9512 170.951 55.5293C170.951 55.0078 171.461 54.6387 172.193 54.6387C172.814 54.6387 173.207 54.8613 173.471 55.3711C173.582 55.582 173.723 55.6465 173.922 55.6465C174.168 55.6465 174.32 55.4883 174.32 55.248C174.32 55.2012 174.314 55.1543 174.303 55.0957C174.145 54.3633 173.254 53.8008 172.252 53.8008C170.875 53.8008 169.943 54.5215 169.943 55.582C169.943 56.4375 170.512 56.9941 171.689 57.2871L172.621 57.5215C173.307 57.6914 173.559 57.9258 173.559 58.3652C173.559 58.9336 173.031 59.2734 172.252 59.2734C171.473 59.2734 171.109 59.0332 170.805 58.5C170.688 58.2891 170.541 58.1953 170.359 58.1953C170.096 58.1953 169.896 58.3477 169.896 58.6172C169.896 58.6934 169.908 58.7695 169.943 58.8574C170.236 59.6191 171.086 60.1055 172.17 60.1055Z" fill="#818181"/>
<path d="M311.088 46.1055C311.387 46.1055 311.598 45.8828 311.598 45.5605V38.0312C311.598 37.6621 311.375 37.4395 311.012 37.4395C310.771 37.4395 310.631 37.498 310.303 37.7324L308.492 39.0273C308.27 39.1855 308.199 39.3086 308.199 39.4961C308.199 39.7539 308.369 39.9297 308.615 39.9297C308.744 39.9297 308.855 39.8887 308.973 39.8066L310.555 38.6992H310.578V45.5605C310.578 45.8828 310.789 46.1055 311.088 46.1055ZM316.654 46.1406C318.447 46.1406 319.725 45.1328 319.725 43.7148C319.725 42.666 318.998 41.7988 317.902 41.541V41.5176C318.84 41.2188 319.408 40.5098 319.408 39.6309C319.408 38.3418 318.254 37.4043 316.654 37.4043C315.066 37.4043 313.895 38.3477 313.895 39.625C313.895 40.5156 314.475 41.2305 315.406 41.5176V41.541C314.316 41.793 313.59 42.6602 313.59 43.7148C313.59 45.127 314.867 46.1406 316.654 46.1406ZM316.654 41.125C315.646 41.125 314.943 40.5449 314.943 39.7246C314.943 38.8984 315.646 38.3125 316.654 38.3125C317.662 38.3125 318.365 38.8926 318.365 39.7246C318.365 40.5449 317.656 41.125 316.654 41.125ZM316.654 45.2207C315.494 45.2207 314.662 44.5586 314.662 43.6387C314.662 42.7129 315.494 42.0508 316.654 42.0508C317.82 42.0508 318.646 42.707 318.646 43.6387C318.646 44.5586 317.82 45.2207 316.654 45.2207ZM305.504 60.082C305.826 60.082 306.031 59.8711 306.031 59.5371V52.4941H308.281C308.58 52.4941 308.785 52.3008 308.785 52.0195C308.785 51.7383 308.58 51.5449 308.281 51.5449H302.727C302.428 51.5449 302.223 51.7383 302.223 52.0195C302.223 52.3008 302.428 52.4941 302.727 52.4941H304.977V59.5371C304.977 59.8711 305.182 60.082 305.504 60.082ZM308.814 60.1055C309.113 60.1055 309.324 59.8828 309.324 59.5605V56.2148C309.324 55.4355 309.717 54.7734 310.637 54.7734C310.859 54.7734 311.018 54.7324 311.123 54.6445C311.229 54.5625 311.281 54.4453 311.281 54.2871C311.281 54.1465 311.24 54.0293 311.152 53.9473C311.053 53.8535 310.895 53.8008 310.672 53.8008C310.062 53.8008 309.465 54.2695 309.289 54.9023H309.266V54.3164C309.266 54.0117 309.066 53.8008 308.785 53.8008C308.504 53.8008 308.305 54.0117 308.305 54.3164V59.5605C308.305 59.8828 308.516 60.1055 308.814 60.1055ZM312.57 52.8809C312.922 52.8809 313.209 52.5938 313.209 52.248C313.209 51.8965 312.922 51.6152 312.57 51.6152C312.225 51.6152 311.938 51.8965 311.938 52.248C311.938 52.5938 312.225 52.8809 312.57 52.8809ZM312.57 60.1055C312.869 60.1055 313.08 59.8828 313.08 59.5605V54.3457C313.08 54.0234 312.869 53.8008 312.57 53.8008C312.271 53.8008 312.061 54.0234 312.061 54.3457V59.5605C312.061 59.8828 312.271 60.1055 312.57 60.1055ZM314.967 62.1504C315.266 62.1504 315.477 61.9277 315.477 61.6055V59.0098H315.5C315.863 59.6777 316.566 60.1055 317.439 60.1055C318.975 60.1055 320.023 58.8633 320.023 56.9531C320.023 55.043 318.969 53.8008 317.416 53.8008C316.531 53.8008 315.822 54.252 315.447 54.9375H315.424V54.3164C315.424 54.0117 315.225 53.8008 314.943 53.8008C314.656 53.8008 314.457 54.0117 314.457 54.3164V61.6055C314.457 61.9277 314.668 62.1504 314.967 62.1504ZM317.217 59.209C316.174 59.209 315.471 58.3125 315.471 56.9531C315.471 55.5996 316.174 54.6973 317.217 54.6973C318.301 54.6973 318.98 55.5762 318.98 56.9531C318.98 58.3359 318.301 59.209 317.217 59.209ZM323.17 60.1055C324.617 60.1055 325.596 59.373 325.596 58.2832C325.596 57.3867 325.127 56.9414 323.855 56.6309L322.947 56.4082C322.279 56.2441 321.951 55.9512 321.951 55.5293C321.951 55.0078 322.461 54.6387 323.193 54.6387C323.814 54.6387 324.207 54.8613 324.471 55.3711C324.582 55.582 324.723 55.6465 324.922 55.6465C325.168 55.6465 325.32 55.4883 325.32 55.248C325.32 55.2012 325.314 55.1543 325.303 55.0957C325.145 54.3633 324.254 53.8008 323.252 53.8008C321.875 53.8008 320.943 54.5215 320.943 55.582C320.943 56.4375 321.512 56.9941 322.689 57.2871L323.621 57.5215C324.307 57.6914 324.559 57.9258 324.559 58.3652C324.559 58.9336 324.031 59.2734 323.252 59.2734C322.473 59.2734 322.109 59.0332 321.805 58.5C321.688 58.2891 321.541 58.1953 321.359 58.1953C321.096 58.1953 320.896 58.3477 320.896 58.6172C320.896 58.6934 320.908 58.7695 320.943 58.8574C321.236 59.6191 322.086 60.1055 323.17 60.1055Z" fill="#818181"/>
<path d="M236.453 46.123C236.975 46.123 237.326 45.7715 237.326 45.2383V38.4062C237.326 37.7969 236.951 37.416 236.324 37.416C235.961 37.416 235.68 37.4688 235.27 37.75L233.594 38.9102C233.318 39.1035 233.213 39.3027 233.213 39.5723C233.213 39.9473 233.477 40.2051 233.834 40.2051C234.016 40.2051 234.139 40.1641 234.303 40.0469L235.539 39.1855H235.574V45.2383C235.574 45.7715 235.932 46.123 236.453 46.123ZM242.477 46.1875C244.404 46.1875 245.746 44.9688 245.746 43.1641C245.746 41.5527 244.598 40.416 242.98 40.416C242.119 40.416 241.428 40.7559 241.082 41.3008H241.047L241.246 38.9512H244.586C245.031 38.9512 245.312 38.6758 245.312 38.248C245.312 37.8203 245.025 37.5449 244.586 37.5449H240.877C240.191 37.5449 239.822 37.832 239.764 38.5469L239.518 41.6465C239.512 41.6758 239.512 41.6934 239.512 41.7168C239.488 42.1914 239.764 42.5957 240.344 42.5957C240.736 42.5957 240.912 42.5078 241.258 42.1855C241.557 41.8984 241.979 41.6816 242.482 41.6816C243.402 41.6816 244.059 42.3145 244.059 43.2051C244.059 44.1191 243.396 44.7812 242.477 44.7812C241.715 44.7812 241.217 44.4121 240.912 43.8027C240.713 43.4863 240.49 43.3633 240.139 43.3633C239.682 43.3633 239.4 43.6328 239.4 44.084C239.4 44.2949 239.453 44.4766 239.541 44.6641C239.963 45.5605 241.135 46.1875 242.477 46.1875ZM229.615 60.1113C230.172 60.1113 230.5 59.7715 230.5 59.1914V53.0098H232.252C232.727 53.0098 233.049 52.7344 233.049 52.2773C233.049 51.8203 232.732 51.5449 232.252 51.5449H226.984C226.498 51.5449 226.182 51.8203 226.182 52.2773C226.182 52.7344 226.504 53.0098 226.984 53.0098H228.73V59.1914C228.73 59.7715 229.059 60.1113 229.615 60.1113ZM233.84 60.123C234.361 60.123 234.695 59.8008 234.695 59.2324V56.4434C234.695 55.6992 234.971 55.2598 235.75 55.248C236.084 55.2422 236.33 55.166 236.494 55.0254C236.658 54.8848 236.74 54.6797 236.74 54.4102C236.74 54.1172 236.658 53.9062 236.494 53.7773C236.371 53.6719 236.189 53.6191 235.961 53.6191C235.334 53.6191 234.818 54.082 234.654 54.8613H234.619V54.4512C234.619 53.9062 234.291 53.5898 233.811 53.5898C233.318 53.5898 232.984 53.9062 232.984 54.4512V59.2324C232.984 59.8008 233.324 60.123 233.84 60.123ZM238.24 52.9395C238.756 52.9395 239.154 52.5469 239.154 52.0547C239.154 51.5566 238.756 51.1699 238.24 51.1699C237.725 51.1699 237.326 51.5566 237.326 52.0547C237.326 52.5469 237.725 52.9395 238.24 52.9395ZM238.24 60.123C238.768 60.123 239.096 59.7891 239.096 59.2324V54.4863C239.096 53.9297 238.768 53.5898 238.24 53.5898C237.707 53.5898 237.385 53.9297 237.385 54.4863V59.2324C237.385 59.7891 237.707 60.123 238.24 60.123ZM241.094 62.2383C241.598 62.2383 241.949 61.9336 241.949 61.3477V58.9453H241.984C242.318 59.6543 243.021 60.0996 243.936 60.0996C245.506 60.0996 246.479 58.8809 246.479 56.8594C246.479 54.832 245.5 53.6191 243.906 53.6191C242.998 53.6191 242.301 54.0762 241.961 54.8145H241.926V54.4746C241.926 53.8945 241.574 53.5898 241.082 53.5898C240.59 53.5898 240.238 53.8945 240.238 54.4688V61.3477C240.238 61.9336 240.596 62.2383 241.094 62.2383ZM243.332 58.7227C242.494 58.7227 241.943 57.9961 241.943 56.8594C241.943 55.7344 242.494 54.9902 243.332 54.9902C244.188 54.9902 244.727 55.7227 244.727 56.8594C244.727 58.002 244.188 58.7227 243.332 58.7227ZM249.924 60.1348C251.582 60.1348 252.701 59.3262 252.701 58.0781C252.701 57.1406 252.15 56.6484 250.814 56.3672L249.777 56.1445C249.15 56.0098 248.904 55.793 248.904 55.4648C248.904 55.0605 249.309 54.7852 249.889 54.7852C250.504 54.7852 250.844 55.0781 251.143 55.459C251.295 55.6406 251.541 55.7227 251.764 55.7227C252.203 55.7227 252.42 55.4824 252.42 55.1367C252.42 55.0547 252.402 54.9727 252.379 54.8848C252.174 54.1758 251.219 53.584 249.918 53.584C248.289 53.584 247.252 54.3574 247.252 55.5586C247.252 56.4902 247.873 57.1172 249.104 57.3809L250.158 57.6035C250.773 57.7383 250.99 57.9199 250.99 58.2598C250.99 58.6758 250.586 58.9336 249.965 58.9336C249.314 58.9336 248.928 58.7344 248.594 58.2949C248.359 58.0312 248.125 57.9082 247.85 57.9082C247.451 57.9082 247.158 58.1719 247.158 58.5645C247.158 58.6582 247.182 58.7695 247.223 58.8809C247.521 59.6191 248.482 60.1348 249.924 60.1348Z" fill="#181818"/>
<path d="M385.107 46H389.766C390.064 46 390.264 45.8125 390.264 45.5312C390.264 45.25 390.064 45.0625 389.766 45.0625H386.074V45.0391L388.195 42.8594C389.643 41.377 390.064 40.6797 390.064 39.7539C390.064 38.3887 388.963 37.4043 387.439 37.4043C385.711 37.4043 384.779 38.5293 384.656 39.3965C384.645 39.4668 384.639 39.5312 384.639 39.6074C384.639 39.8828 384.814 40.0762 385.125 40.0762C385.412 40.0762 385.529 39.9238 385.6 39.707C385.887 38.7988 386.525 38.3242 387.439 38.3242C388.348 38.3242 389.01 38.957 389.01 39.8184C389.01 40.5273 388.74 40.9785 387.604 42.168L384.896 44.9922C384.645 45.2559 384.598 45.3496 384.598 45.5664C384.598 45.8301 384.797 46 385.107 46ZM394.084 46.1055C394.383 46.1055 394.594 45.8828 394.594 45.5605V38.0312C394.594 37.6621 394.371 37.4395 394.008 37.4395C393.768 37.4395 393.627 37.498 393.299 37.7324L391.488 39.0273C391.266 39.1855 391.195 39.3086 391.195 39.4961C391.195 39.7539 391.365 39.9297 391.611 39.9297C391.74 39.9297 391.852 39.8887 391.969 39.8066L393.551 38.6992H393.574V45.5605C393.574 45.8828 393.785 46.1055 394.084 46.1055ZM381.504 60.082C381.826 60.082 382.031 59.8711 382.031 59.5371V52.4941H384.281C384.58 52.4941 384.785 52.3008 384.785 52.0195C384.785 51.7383 384.58 51.5449 384.281 51.5449H378.727C378.428 51.5449 378.223 51.7383 378.223 52.0195C378.223 52.3008 378.428 52.4941 378.727 52.4941H380.977V59.5371C380.977 59.8711 381.182 60.082 381.504 60.082ZM384.814 60.1055C385.113 60.1055 385.324 59.8828 385.324 59.5605V56.2148C385.324 55.4355 385.717 54.7734 386.637 54.7734C386.859 54.7734 387.018 54.7324 387.123 54.6445C387.229 54.5625 387.281 54.4453 387.281 54.2871C387.281 54.1465 387.24 54.0293 387.152 53.9473C387.053 53.8535 386.895 53.8008 386.672 53.8008C386.062 53.8008 385.465 54.2695 385.289 54.9023H385.266V54.3164C385.266 54.0117 385.066 53.8008 384.785 53.8008C384.504 53.8008 384.305 54.0117 384.305 54.3164V59.5605C384.305 59.8828 384.516 60.1055 384.814 60.1055ZM388.57 52.8809C388.922 52.8809 389.209 52.5938 389.209 52.248C389.209 51.8965 388.922 51.6152 388.57 51.6152C388.225 51.6152 387.938 51.8965 387.938 52.248C387.938 52.5938 388.225 52.8809 388.57 52.8809ZM388.57 60.1055C388.869 60.1055 389.08 59.8828 389.08 59.5605V54.3457C389.08 54.0234 388.869 53.8008 388.57 53.8008C388.271 53.8008 388.061 54.0234 388.061 54.3457V59.5605C388.061 59.8828 388.271 60.1055 388.57 60.1055ZM390.967 62.1504C391.266 62.1504 391.477 61.9277 391.477 61.6055V59.0098H391.5C391.863 59.6777 392.566 60.1055 393.439 60.1055C394.975 60.1055 396.023 58.8633 396.023 56.9531C396.023 55.043 394.969 53.8008 393.416 53.8008C392.531 53.8008 391.822 54.252 391.447 54.9375H391.424V54.3164C391.424 54.0117 391.225 53.8008 390.943 53.8008C390.656 53.8008 390.457 54.0117 390.457 54.3164V61.6055C390.457 61.9277 390.668 62.1504 390.967 62.1504ZM393.217 59.209C392.174 59.209 391.471 58.3125 391.471 56.9531C391.471 55.5996 392.174 54.6973 393.217 54.6973C394.301 54.6973 394.98 55.5762 394.98 56.9531C394.98 58.3359 394.301 59.209 393.217 59.209ZM399.17 60.1055C400.617 60.1055 401.596 59.373 401.596 58.2832C401.596 57.3867 401.127 56.9414 399.855 56.6309L398.947 56.4082C398.279 56.2441 397.951 55.9512 397.951 55.5293C397.951 55.0078 398.461 54.6387 399.193 54.6387C399.814 54.6387 400.207 54.8613 400.471 55.3711C400.582 55.582 400.723 55.6465 400.922 55.6465C401.168 55.6465 401.32 55.4883 401.32 55.248C401.32 55.2012 401.314 55.1543 401.303 55.0957C401.145 54.3633 400.254 53.8008 399.252 53.8008C397.875 53.8008 396.943 54.5215 396.943 55.582C396.943 56.4375 397.512 56.9941 398.689 57.2871L399.621 57.5215C400.307 57.6914 400.559 57.9258 400.559 58.3652C400.559 58.9336 400.031 59.2734 399.252 59.2734C398.473 59.2734 398.109 59.0332 397.805 58.5C397.688 58.2891 397.541 58.1953 397.359 58.1953C397.096 58.1953 396.896 58.3477 396.896 58.6172C396.896 58.6934 396.908 58.7695 396.943 58.8574C397.236 59.6191 398.086 60.1055 399.17 60.1055Z" fill="#818181"/>
<g filter="url(#filter1_d)">
<path fill-rule="evenodd" clip-rule="evenodd" d="M239 27C245.627 27 251 21.6274 251 15C251 8.37258 245.627 3 239 3C232.373 3 227 8.37258 227 15C227 21.6274 232.373 27 239 27Z" fill="url(#paint0_linear)"/>
<path fill-rule="evenodd" clip-rule="evenodd" d="M239 27C245.627 27 251 21.6274 251 15C251 8.37258 245.627 3 239 3C232.373 3 227 8.37258 227 15C227 21.6274 232.373 27 239 27Z" stroke="#181818"/>
</g>
<defs>
<filter id="filter0_i" x="5" y="8" width="392" height="15" filterUnits="userSpaceOnUse" color-interpolation-filters="sRGB">
<feFlood flood-opacity="0" result="BackgroundImageFix"/>
<feBlend mode="normal" in="SourceGraphic" in2="BackgroundImageFix" result="shape"/>
<feColorMatrix in="SourceAlpha" type="matrix" values="0 0 0 0 0 0 0 0 0 0 0 0 0 0 0 0 0 0 127 0" result="hardAlpha"/>
<feOffset dy="1"/>
<feGaussianBlur stdDeviation="1"/>
<feComposite in2="hardAlpha" operator="arithmetic" k2="-1" k3="1"/>
<feColorMatrix type="matrix" values="0 0 0 0 0.505882 0 0 0 0 0.505882 0 0 0 0 0.505882 0 0 0 1 0"/>
<feBlend mode="normal" in2="shape" result="effect1_innerShadow"/>
</filter>
<filter id="filter1_d" x="222.5" y="0.5" width="33" height="33" filterUnits="userSpaceOnUse" color-interpolation-filters="sRGB">
<feFlood flood-opacity="0" result="BackgroundImageFix"/>
<feColorMatrix in="SourceAlpha" type="matrix" values="0 0 0 0 0 0 0 0 0 0 0 0 0 0 0 0 0 0 127 0"/>
<feOffset dy="2"/>
<feGaussianBlur stdDeviation="2"/>
<feColorMatrix type="matrix" values="0 0 0 0 0.796078 0 0 0 0 0.796078 0 0 0 0 0.796078 0 0 0 1 0"/>
<feBlend mode="normal" in2="BackgroundImageFix" result="effect1_dropShadow"/>
<feBlend mode="normal" in="SourceGraphic" in2="effect1_dropShadow" result="shape"/>
</filter>
<linearGradient id="paint0_linear" x1="227" y1="3" x2="227" y2="27" gradientUnits="userSpaceOnUse">
<stop stop-color="#FFED8E"/>
<stop offset="1" stop-color="#D1BB40"/>
</linearGradient>
</defs>
</svg>
