<svg width="859" height="524" viewBox="0 0 859 524" fill="none" xmlns="http://www.w3.org/2000/svg">
<g opacity="0.404113">
<path d="M2 48.948C2 48.948 27.0846 95 109 95C170.915 95 242.354 2.29656 323 2.00183C403.646 1.7071 430 48.948 430 48.948" stroke="#FFE44E" stroke-width="4" stroke-linecap="round"/>
<path d="M429 48.948C429 48.948 454.085 95 536 95C597.915 95 669.354 2.29656 750 2.00183C830.646 1.7071 857 48.948 857 48.948" stroke="#FFE44E" stroke-width="4" stroke-linecap="round"/>
<path d="M2 133.948C2 133.948 27.0846 180 109 180C170.915 180 242.354 87.2966 323 87.0018C403.646 86.7071 430 133.948 430 133.948" stroke="#FFE44E" stroke-width="4" stroke-linecap="round"/>
<path d="M429 133.948C429 133.948 454.085 180 536 180C597.915 180 669.354 87.2966 750 87.0018C830.646 86.7071 857 133.948 857 133.948" stroke="#FFE44E" stroke-width="4" stroke-linecap="round"/>
<path d="M2 91.948C2 91.948 27.0846 138 109 138C170.915 138 242.354 45.2966 323 45.0018C403.646 44.7071 430 91.948 430 91.948" stroke="#FFE44E" stroke-width="4" stroke-linecap="round"/>
<path d="M429 91.948C429 91.948 454.085 138 536 138C597.915 138 669.354 45.2966 750 45.0018C830.646 44.7071 857 91.948 857 91.948" stroke="#FFE44E" stroke-width="4" stroke-linecap="round"/>
<path d="M2 176.948C2 176.948 27.0846 223 109 223C170.915 223 242.354 130.297 323 130.002C403.646 129.707 430 176.948 430 176.948" stroke="#FFE44E" stroke-width="4" stroke-linecap="round"/>
<path d="M429 176.948C429 176.948 454.085 223 536 223C597.915 223 669.354 130.297 750 130.002C830.646 129.707 857 176.948 857 176.948" stroke="#FFE44E" stroke-width="4" stroke-linecap="round"/>
<path d="M2 219.948C2 219.948 27.0846 266 109 266C170.915 266 242.354 173.297 323 173.002C403.646 172.707 430 219.948 430 219.948" stroke="#FFE44E" stroke-width="4" stroke-linecap="round"/>
<path d="M429 219.948C429 219.948 454.085 266 536 266C597.915 266 669.354 173.297 750 173.002C830.646 172.707 857 219.948 857 219.948" stroke="#FFE44E" stroke-width="4" stroke-linecap="round"/>
<path d="M2 304.948C2 304.948 27.0846 351 109 351C170.915 351 242.354 258.297 323 258.002C403.646 257.707 430 304.948 430 304.948" stroke="#FFE44E" stroke-width="4" stroke-linecap="round"/>
<path d="M2 433.948C2 433.948 27.0846 480 109 480C170.915 480 242.354 387.297 323 387.002C403.646 386.707 430 433.948 430 433.948" stroke="#FFE44E" stroke-width="4" stroke-linecap="round"/>
<path d="M429 304.948C429 304.948 454.085 351 536 351C597.915 351 669.354 258.297 750 258.002C830.646 257.707 857 304.948 857 304.948" stroke="#FFE44E" stroke-width="4" stroke-linecap="round"/>
<path d="M429 433.948C429 433.948 454.085 480 536 480C597.915 480 669.354 387.297 750 387.002C830.646 386.707 857 433.948 857 433.948" stroke="#FFE44E" stroke-width="4" stroke-linecap="round"/>
<path d="M2 262.948C2 262.948 27.0846 309 109 309C170.915 309 242.354 216.297 323 216.002C403.646 215.707 430 262.948 430 262.948" stroke="#FFE44E" stroke-width="4" stroke-linecap="round"/>
<path d="M2 390.948C2 390.948 27.0846 437 109 437C170.915 437 242.354 344.297 323 344.002C403.646 343.707 430 390.948 430 390.948" stroke="#FFE44E" stroke-width="4" stroke-linecap="round"/>
<path d="M429 262.948C429 262.948 454.085 309 536 309C597.915 309 669.354 216.297 750 216.002C830.646 215.707 857 262.948 857 262.948" stroke="#FFE44E" stroke-width="4" stroke-linecap="round"/>
<path d="M429 390.948C429 390.948 454.085 437 536 437C597.915 437 669.354 344.297 750 344.002C830.646 343.707 857 390.948 857 390.948" stroke="#FFE44E" stroke-width="4" stroke-linecap="round"/>
<path d="M2 347.948C2 347.948 27.0846 394 109 394C170.915 394 242.354 301.297 323 301.002C403.646 300.707 430 347.948 430 347.948" stroke="#FFE44E" stroke-width="4" stroke-linecap="round"/>
<path d="M2 475.948C2 475.948 27.0846 522 109 522C170.915 522 242.354 429.297 323 429.002C403.646 428.707 430 475.948 430 475.948" stroke="#FFE44E" stroke-width="4" stroke-linecap="round"/>
<path d="M429 347.948C429 347.948 454.085 394 536 394C597.915 394 669.354 301.297 750 301.002C830.646 300.707 857 347.948 857 347.948" stroke="#FFE44E" stroke-width="4" stroke-linecap="round"/>
<path d="M429 475.948C429 475.948 454.085 522 536 522C597.915 522 669.354 429.297 750 429.002C830.646 428.707 857 475.948 857 475.948" stroke="#FFE44E" stroke-width="4" stroke-linecap="round"/>
</g>
</svg>
